<?xml version="1.0" standalone="no"?>
<!DOCTYPE svg PUBLIC "-//W3C//DTD SVG 20010904//EN"
 "http://www.w3.org/TR/2001/REC-SVG-20010904/DTD/svg10.dtd">
<svg version="1.0" xmlns="http://www.w3.org/2000/svg"
 width="442.000000pt" height="453.000000pt" viewBox="0 0 442.000000 453.000000"
 preserveAspectRatio="xMidYMid meet">

<g transform="translate(0.000000,453.000000) scale(0.100000,-0.100000)"
fill="#000000" stroke="none">
<path d="M2014 4021 c8 -12 -20 -34 -36 -28 -7 2 -34 -2 -60 -10 -34 -10 -53
-11 -67 -4 -14 8 -22 7 -32 -5 -8 -10 -22 -14 -39 -11 -15 3 -50 -4 -83 -17
-38 -16 -72 -23 -106 -21 -42 2 -58 -2 -101 -31 -29 -19 -55 -34 -59 -34 -4 0
-18 -11 -31 -25 -13 -14 -32 -25 -42 -25 -10 0 -23 -10 -29 -23 -6 -13 -26
-29 -44 -36 -39 -14 -85 -64 -85 -91 0 -11 -10 -25 -22 -31 -29 -15 -84 -74
-113 -120 -13 -20 -31 -43 -40 -53 -13 -12 -18 -38 -20 -99 -3 -102 -3 -100
-16 -91 -9 5 -10 -1 -4 -22 4 -16 7 -42 6 -58 -1 -15 2 -33 7 -40 15 -21 31
-82 47 -186 9 -58 23 -126 30 -153 8 -26 17 -85 21 -132 7 -82 6 -85 -15 -85
-35 0 -56 -32 -75 -115 -17 -75 -17 -90 -3 -237 11 -120 19 -167 37 -202 12
-26 19 -54 16 -63 -4 -9 -2 -40 4 -69 11 -51 31 -77 84 -109 10 -6 26 -46 41
-100 52 -200 110 -311 216 -417 72 -71 79 -82 103 -158 15 -45 23 -87 19 -93
-4 -7 -21 -23 -38 -36 -93 -76 -203 -225 -264 -358 -23 -52 -35 -96 -41 -160
-5 -48 -14 -104 -20 -123 -5 -19 -10 -47 -10 -62 0 -37 -58 -131 -76 -124 -9
3 -14 -1 -14 -11 0 -13 -3 -14 -12 -5 -8 8 -22 2 -57 -27 -25 -21 -72 -55
-103 -76 -32 -21 -58 -39 -58 -41 0 -2 808 -4 1795 -4 l1795 0 -2 357 -3 356
-70 55 c-154 119 -358 188 -987 335 -60 14 -122 32 -138 41 -36 17 -30 22
-180 -146 -47 -52 -109 -113 -139 -134 -110 -80 -199 -165 -235 -225 -20 -33
-36 -64 -36 -68 0 -4 -11 -18 -24 -30 l-24 -22 -98 34 c-136 47 -209 89 -299
175 -43 39 -83 72 -89 72 -6 0 -18 -13 -27 -28 -9 -15 -31 -33 -50 -39 -19 -6
-52 -18 -74 -27 l-40 -15 32 -1 c18 0 44 5 58 12 32 14 41 5 23 -21 -8 -12
-17 -18 -20 -15 -3 3 -23 -2 -43 -10 -50 -21 -60 -20 -73 9 -8 17 -8 25 -1 25
6 0 8 4 5 9 -8 12 32 61 50 61 8 0 14 4 14 9 0 5 8 12 18 14 9 3 1 5 -18 6
l-35 2 31 13 c18 8 35 19 38 25 4 6 16 11 27 11 10 0 18 6 17 13 -2 6 9 13 24
15 14 2 32 10 38 18 7 8 21 14 31 14 11 0 19 6 19 13 0 14 27 31 68 42 12 4
22 10 22 15 0 4 9 6 20 3 11 -3 20 -1 20 5 0 5 10 12 23 16 13 3 39 20 58 38
42 40 83 75 214 182 142 115 174 151 223 247 33 64 50 116 68 205 13 65 24
133 24 149 0 17 7 43 15 59 22 42 19 66 -7 65 -13 0 -17 -3 -10 -6 6 -2 9 -9
6 -14 -3 -6 -7 -20 -9 -32 -4 -26 -10 -46 -18 -67 -3 -8 -8 -22 -10 -30 -4
-11 -6 -11 -6 3 -1 10 -5 15 -11 12 -5 -3 -10 -2 -10 4 0 5 6 12 13 15 6 4 2
4 -10 2 -14 -2 -23 2 -26 13 -3 14 -5 14 -12 -3 -5 -12 -3 -21 6 -27 11 -7 11
-9 -3 -9 -14 0 -18 -9 -19 -42 -3 -67 -4 -72 -12 -85 -4 -6 -4 -19 0 -29 4
-12 3 -15 -5 -10 -8 5 -11 0 -9 -16 1 -15 -5 -26 -21 -33 -12 -5 -30 -26 -40
-45 -9 -19 -23 -35 -30 -36 -34 -3 -37 -4 -23 -13 11 -7 9 -13 -8 -30 -13 -13
-31 -23 -42 -24 -10 -1 -19 -5 -19 -10 0 -5 -7 -4 -15 3 -10 9 -15 9 -15 1 0
-14 -20 -14 -40 0 -11 8 -12 12 -2 16 6 2 12 9 12 14 0 6 -4 7 -10 4 -5 -3
-10 -1 -10 4 0 6 6 11 13 11 7 0 14 13 15 30 3 34 -4 37 -30 13 -10 -9 -18
-11 -18 -5 0 21 -41 8 -46 -15 -11 -44 -46 -16 -37 30 4 21 3 28 -5 23 -7 -4
-12 -1 -12 9 0 10 5 13 12 9 8 -5 9 -2 5 10 -4 10 -4 23 0 29 10 16 5 125 -7
147 -7 13 -6 20 2 22 10 4 10 10 0 32 -6 15 -17 24 -22 21 -6 -3 -10 -2 -10 2
0 12 -55 43 -85 49 -15 3 -25 0 -25 -8 0 -6 -6 -4 -13 7 -10 13 -16 15 -21 6
-6 -9 -11 -9 -21 -1 -9 8 -15 8 -20 0 -9 -15 -35 -12 -35 5 0 9 -6 12 -15 9
-8 -4 -15 -2 -15 4 0 15 -30 23 -49 12 -23 -12 -33 -2 -21 20 7 13 5 20 -7 24
-9 4 -21 2 -27 -4 -5 -5 -19 -10 -31 -10 -11 0 -31 -9 -44 -19 -20 -16 -27
-17 -38 -6 -19 20 -17 23 23 31 19 3 41 15 47 25 14 23 34 24 96 3 57 -18 105
-15 109 6 7 39 -114 70 -174 45 -40 -16 -94 -20 -94 -6 0 5 -15 16 -34 25 -23
11 -38 27 -45 49 -16 49 -7 146 17 191 14 27 18 45 12 60 -11 31 7 134 31 167
17 24 18 29 5 29 -9 0 -16 4 -16 9 0 14 -62 71 -77 71 -6 0 -13 4 -15 9 -3 7
-47 25 -183 71 -33 11 -58 14 -72 9 -14 -5 -25 -4 -29 2 -3 6 -18 7 -33 4 -58
-12 -69 55 -15 90 35 22 41 48 31 135 -2 19 2 46 8 60 6 14 10 33 8 42 -4 16
41 43 105 62 12 4 27 17 34 29 16 31 70 100 86 110 7 5 10 12 7 17 -10 16 46
50 71 44 13 -3 24 -2 24 4 0 5 18 12 41 16 23 4 54 13 71 22 16 8 39 16 51 18
12 1 35 8 52 15 16 7 94 17 174 22 79 5 148 12 154 16 16 10 151 10 165 0 7
-6 12 -6 12 1 0 14 38 3 82 -25 21 -12 44 -23 52 -23 21 0 31 -19 17 -33 -15
-15 -14 -57 4 -107 8 -24 14 -50 13 -59 -2 -10 3 -15 14 -13 21 3 27 -36 14
-95 -7 -31 -6 -51 3 -70 8 -16 14 -55 14 -88 1 -50 6 -69 34 -113 65 -103 75
-145 103 -427 6 -60 13 -159 15 -220 2 -60 4 -116 4 -122 1 -7 5 -13 10 -13 5
0 8 89 6 205 -4 223 -3 226 55 325 17 28 28 55 26 58 -6 11 32 295 51 377 9
39 16 85 15 103 0 17 4 32 9 32 5 0 9 10 10 23 0 21 1 21 9 2 5 -13 8 16 7 77
0 53 -4 95 -9 92 -4 -3 -8 1 -8 8 0 20 -39 90 -66 119 -13 14 -21 28 -18 32 8
8 -18 35 -31 30 -14 -4 -41 15 -32 23 9 9 87 -14 87 -26 0 -5 7 -7 16 -3 9 3
27 -6 45 -23 20 -19 29 -23 29 -13 0 9 -26 33 -57 54 -32 21 -63 44 -69 51
-15 18 -124 20 -124 2 0 -4 -4 -8 -9 -8 -5 0 -5 17 0 41 7 29 6 45 -2 55 -6 8
-9 20 -6 28 7 18 -40 44 -97 53 -23 3 -53 12 -68 20 -15 7 -30 13 -33 13 -41
-1 -49 1 -35 10 12 8 11 10 -7 10 -12 0 -29 10 -37 21 -13 19 -30 32 -101 76
-50 30 -106 51 -180 67 -44 9 -105 23 -135 31 -30 8 -67 13 -82 9 -17 -3 -28
-1 -28 5 0 13 45 25 65 17 9 -3 13 -2 10 4 -3 6 -26 10 -51 10 -25 0 -43 -4
-40 -9z m-364 -131 c0 -5 -4 -10 -10 -10 -5 0 -10 5 -10 10 0 6 5 10 10 10 6
0 10 -4 10 -10z m1093 -888 c-5 -12 -7 -12 -15 2 -11 20 1 44 12 25 5 -6 6
-19 3 -27z m44 -134 c-3 -8 -6 -5 -6 6 -1 11 2 17 5 13 3 -3 4 -12 1 -19z
m-1291 -283 c11 -3 33 -16 50 -30 l29 -26 -45 8 c-25 4 -65 8 -90 8 -51 0 -71
22 -38 41 19 10 38 10 94 -1z m39 -75 c3 -5 1 -10 -4 -10 -6 0 -11 5 -11 10 0
6 2 10 4 10 3 0 8 -4 11 -10z m104 -36 c28 -14 51 -29 51 -35 0 -5 7 -9 16 -9
13 0 15 -7 10 -35 -6 -29 -4 -34 9 -29 8 3 15 10 15 16 0 5 4 7 10 3 5 -3 6
-13 3 -22 -4 -11 -3 -14 5 -9 20 12 24 -20 7 -53 -18 -35 -35 -41 -35 -11 0
54 -34 -5 -46 -78 l-7 -44 34 4 c30 3 35 -1 50 -31 30 -64 4 -111 -62 -111
-43 0 -51 8 -52 55 -1 19 -5 31 -11 28 -22 -9 -76 -86 -88 -125 -10 -35 -10
-42 5 -53 18 -13 24 -31 7 -20 -14 8 -67 -33 -74 -58 -3 -13 -10 -18 -20 -14
-9 4 -16 2 -16 -2 0 -5 -9 -7 -20 -4 -13 4 -20 0 -20 -9 0 -10 -8 -13 -30 -10
-27 4 -44 22 -20 22 12 0 14 37 3 42 -15 6 -53 87 -53 112 0 15 -4 26 -10 26
-5 0 -10 8 -10 18 0 14 2 15 10 2 5 -8 10 -10 10 -4 0 6 -7 17 -15 24 -9 7
-15 29 -15 52 0 35 -2 39 -20 33 -15 -5 -20 -2 -20 14 0 11 -4 22 -9 25 -18
11 -21 67 -5 97 21 41 48 49 109 33 27 -8 64 -14 82 -14 44 0 127 19 148 33
13 10 3 12 -57 10 -70 -3 -72 -2 -43 12 17 8 35 14 41 15 7 0 15 7 18 16 3 8
2 12 -4 9 -20 -12 -9 4 25 38 19 19 35 42 35 51 0 20 -1 21 59 -10z m95 -9
c29 -26 30 -33 16 -55 -8 -13 -10 -12 -10 3 0 10 -11 29 -25 43 -42 41 -25 50
19 9z m-278 -62 c-3 -3 -16 -3 -29 1 -22 5 -25 14 -18 56 1 3 13 -8 27 -23 14
-16 24 -31 20 -34z m254 -475 c0 -5 -11 -8 -25 -8 -14 0 -25 4 -25 9 0 5 11 8
25 7 14 0 25 -4 25 -8z m30 8 c0 -3 -4 -8 -10 -11 -5 -3 -10 -1 -10 4 0 6 5
11 10 11 6 0 10 -2 10 -4z m-90 -20 c0 -8 -4 -18 -10 -21 -5 -3 -10 -1 -10 4
0 6 -10 11 -22 12 -22 1 -22 1 2 9 37 12 40 11 40 -4z m430 -21 c0 -9 -12 -20
-26 -25 -32 -13 -44 -13 -44 0 0 5 7 6 17 3 12 -5 14 -3 8 7 -6 10 -3 12 14 7
17 -4 21 -2 17 9 -3 8 -1 14 4 14 6 0 10 -7 10 -15z m-19 -68 c9 9 16 10 26 2
7 -7 13 -8 13 -3 0 5 5 2 10 -6 9 -13 11 -13 20 0 8 13 10 12 10 -2 0 -10 5
-18 10 -18 19 0 9 -15 -26 -39 -30 -21 -48 -25 -115 -25 -63 0 -81 3 -91 17
-14 19 -109 40 -135 30 -11 -5 -14 -3 -8 6 5 9 26 12 69 9 37 -3 76 0 100 9
21 7 49 13 62 13 13 0 24 6 24 13 0 8 3 7 10 -3 7 -12 12 -12 21 -3z m-701
-43 c0 -8 -4 -12 -10 -9 -5 3 -10 10 -10 16 0 5 5 9 10 9 6 0 10 -7 10 -16z
m830 -4 c0 -5 -4 -10 -10 -10 -5 0 -10 5 -10 10 0 6 5 10 10 10 6 0 10 -4 10
-10z m610 -10 c0 -5 -4 -10 -10 -10 -5 0 -10 5 -10 10 0 6 5 10 10 10 6 0 10
-4 10 -10z m-1430 -73 c-10 -9 -12 -8 -7 5 3 10 2 20 -3 23 -6 4 -10 11 -10
18 0 6 7 1 16 -12 13 -18 14 -25 4 -34z m490 49 c0 -3 -4 -8 -10 -11 -5 -3
-10 -1 -10 4 0 6 5 11 10 11 6 0 10 -2 10 -4z m340 -57 c3 -4 12 -4 20 1 25
16 50 11 77 -16 23 -23 25 -30 20 -87 -8 -85 -23 -151 -36 -155 -6 -2 -11 -10
-11 -17 0 -7 -13 -19 -30 -27 -16 -7 -30 -19 -30 -26 0 -7 -5 -10 -11 -7 -6 4
-22 -4 -36 -16 -25 -23 -25 -23 -19 -3 5 18 3 21 -18 19 -13 -2 -34 -9 -47
-16 -13 -7 -28 -12 -33 -11 -5 2 -5 -5 -2 -15 6 -14 5 -15 -5 -6 -10 10 -15 9
-25 -5 -12 -15 -13 -15 -14 8 -1 14 -4 19 -7 13 -7 -18 -23 -16 -23 2 0 8 5
15 11 15 5 0 7 5 4 10 -5 8 -11 8 -20 0 -7 -6 -26 -13 -41 -16 -16 -3 -31 -9
-34 -13 -7 -10 -40 -22 -40 -14 0 4 7 15 17 25 14 16 14 18 0 18 -8 0 -18 -6
-20 -12 -4 -10 -6 -10 -6 0 -1 7 9 17 22 22 12 5 32 17 45 26 12 9 22 12 22 6
0 -6 -8 -16 -17 -21 -17 -10 -17 -10 0 -11 10 0 20 6 23 14 3 8 14 13 25 11
11 -2 17 0 14 4 -3 5 6 12 20 15 14 4 25 13 25 21 0 27 22 63 42 68 13 4 17
10 13 18 -6 9 -1 10 19 5 16 -4 26 -2 26 4 0 12 -17 20 -52 24 -13 1 -30 6
-38 11 -8 5 -71 10 -140 11 -160 1 -160 1 -160 19 0 10 10 15 30 15 35 0 38 9
10 33 -24 20 -26 43 -4 51 9 3 48 7 87 7 40 1 104 5 142 9 78 9 197 2 205 -11z
m-480 -300 c0 -6 9 -8 20 -4 11 4 20 2 20 -4 0 -16 -36 -13 -50 4 -9 10 -9 15
-1 15 6 0 11 -5 11 -11z m232 -101 c-7 -7 -12 -8 -12 -2 0 6 3 14 7 17 3 4 9
5 12 2 2 -3 -1 -11 -7 -17z m-688 -643 c-8 -31 3 -32 29 -2 l19 22 -6 -22 c-6
-19 -3 -23 13 -23 12 0 21 5 21 10 0 6 5 10 10 10 6 0 10 -7 10 -16 0 -12 7
-15 25 -12 13 3 26 1 27 -3 2 -5 13 -10 26 -12 12 -2 28 -9 34 -15 7 -7 18
-12 25 -12 7 0 13 -9 13 -19 0 -11 10 -27 23 -36 21 -16 20 -16 -31 -10 -32 4
-57 3 -65 -4 -9 -7 -34 -7 -77 -1 -36 5 -69 10 -73 10 -17 0 -57 54 -57 77 0
21 28 83 37 83 2 0 1 -11 -3 -25z m529 1 c11 0 15 -6 12 -14 -3 -7 -5 -22 -5
-32 0 -24 -24 -37 -81 -46 -37 -6 -42 -5 -33 7 6 8 10 25 8 37 -3 17 1 25 15
29 13 3 18 10 14 20 -5 13 -1 15 23 8 16 -4 37 -8 47 -9z"/>
<path d="M2335 2711 c-6 -5 -46 -11 -90 -14 -44 -2 -91 -9 -105 -15 -14 -6
-42 -13 -62 -17 -25 -4 -39 -12 -43 -25 -6 -20 -14 -20 -76 -4 -9 3 -21 -2
-28 -10 -9 -11 -5 -21 22 -50 19 -20 39 -36 44 -36 6 0 31 -9 57 -20 31 -14
48 -29 52 -45 6 -25 36 -41 54 -30 5 3 10 1 10 -4 0 -6 -7 -11 -16 -11 -28 0
-9 -24 37 -47 29 -15 71 -24 119 -27 l75 -5 -55 14 c-50 13 -150 60 -150 71 0
2 11 2 25 0 29 -5 33 8 8 24 -17 9 -16 11 6 30 33 28 46 25 70 -15 18 -30 25
-35 58 -35 42 0 83 23 83 46 0 18 14 18 30 -1 10 -12 10 -18 -1 -31 -10 -13
-10 -17 2 -25 19 -12 66 -11 74 1 3 6 17 10 30 10 13 0 27 5 31 11 10 17 -55
77 -104 94 -56 19 -68 12 -17 -10 21 -8 35 -18 31 -22 -3 -4 -23 3 -44 14 -20
12 -55 25 -77 29 -22 4 -46 13 -53 21 -7 7 -22 13 -33 13 -10 0 -19 5 -19 10
0 6 6 10 13 10 6 0 26 7 42 16 17 8 52 18 78 21 35 4 47 10 43 19 -8 21 22 17
41 -6 10 -11 21 -20 26 -20 17 0 82 -34 93 -49 14 -18 34 -6 34 20 0 21 -58
81 -71 73 -5 -2 -22 2 -39 11 -17 9 -30 11 -30 5 0 -5 5 -10 10 -10 6 0 10 -5
10 -11 0 -24 -53 6 -63 36 -2 6 -14 5 -30 -4 -24 -13 -41 -12 -77 3 -9 4 -20
2 -25 -3z m-175 -241 c0 -5 -4 -10 -10 -10 -5 0 -10 5 -10 10 0 6 5 10 10 10
6 0 10 -4 10 -10z"/>
<path d="M3060 2555 c-7 -9 -11 -17 -9 -19 7 -7 49 13 49 24 0 15 -26 12 -40
-5z"/>
<path d="M2248 2413 c7 -3 16 -2 19 1 4 3 -2 6 -13 5 -11 0 -14 -3 -6 -6z"/>
<path d="M2285 2400 c3 -5 15 -10 26 -10 11 0 17 5 14 10 -3 6 -15 10 -26 10
-11 0 -17 -4 -14 -10z"/>
<path d="M2931 2334 c0 -11 3 -14 6 -6 3 7 2 16 -1 19 -3 4 -6 -2 -5 -13z"/>
<path d="M2260 2042 c0 -15 31 -51 62 -73 l32 -23 -32 46 c-28 41 -62 68 -62
50z"/>
<path d="M2881 1974 c0 -11 3 -14 6 -6 3 7 2 16 -1 19 -3 4 -6 -2 -5 -13z"/>
<path d="M2825 1881 c-3 -5 -1 -12 5 -16 5 -3 10 1 10 9 0 18 -6 21 -15 7z"/>
<path d="M2840 1458 c0 -9 -6 -19 -12 -21 -8 -3 -7 -6 4 -6 22 -1 33 18 19 32
-8 8 -11 7 -11 -5z"/>
</g>
</svg>
